<?xml version="1.0" encoding="UTF-8"?>
<svg width="96px" height="29px" viewBox="0 0 96 29" version="1.1" xmlns="http://www.w3.org/2000/svg" xmlns:xlink="http://www.w3.org/1999/xlink">
    <!-- Generator: Sketch 46.2 (44496) - http://www.bohemiancoding.com/sketch -->
    <title>Group</title>
    <desc>Created with Sketch.</desc>
    <defs></defs>
    <g id="Symbols" stroke="none" stroke-width="1" fill="none" fill-rule="evenodd">
        <g id="CC-SVG" fill-rule="nonzero">
            <g id="Group" transform="translate(2.000000, 2.000000)">
                <g id="cc">
                    <circle id="Oval" fill="#FFFFFF" cx="12.1052308" cy="12.0003692" r="10.6471385"></circle>
                    <path d="M11.9782154,0.184615385 C15.2832,0.184615385 18.0971077,1.33846154 20.4177231,3.64504615 C21.5283692,4.75606154 22.3728,6.02584615 22.9495385,7.45329231 C23.5259077,8.88110769 23.8150154,10.3964308 23.8150154,12 C23.8150154,13.6176 23.5296,15.1332923 22.9606154,16.5463385 C22.3908923,17.9597538 21.5501538,19.2084923 20.4395077,20.2914462 C19.2864,21.4305231 17.9782154,22.3030154 16.5149538,22.9078154 C15.0524308,23.5126154 13.5400615,23.8150154 11.9789538,23.8150154 C10.4178462,23.8150154 8.9232,23.5166769 7.49538462,22.9181538 C6.06793846,22.3207385 4.78781538,21.4556308 3.65538462,20.3235692 C2.52295385,19.1915077 1.66153846,17.9147077 1.07076923,16.4939077 C0.48,15.0731077 0.184615385,13.5755077 0.184615385,12 C0.184615385,10.4385231 0.483323077,8.93723077 1.08110769,7.49538462 C1.67889231,6.05353846 2.54769231,4.76307692 3.68676923,3.62363077 C5.93723077,1.33144615 8.70092308,0.184615385 11.9782154,0.184615385 Z M12.0210462,2.31581538 C9.32049231,2.31581538 7.04861538,3.25846154 5.20578462,5.14301538 C4.27716923,6.08566154 3.56344615,7.14387692 3.06424615,8.3184 C2.56430769,9.49292308 2.31507692,10.7202462 2.31507692,12.0003692 C2.31507692,13.2664615 2.56430769,14.4867692 3.06424615,15.6605538 C3.56381538,16.8358154 4.27716923,17.8836923 5.20578462,18.8049231 C6.13403077,19.7265231 7.18153846,20.4291692 8.34978462,20.9150769 C9.51692308,21.4002462 10.7409231,21.6428308 12.0210462,21.6428308 C13.2867692,21.6428308 14.5133538,21.3972923 15.7033846,20.9047385 C16.8919385,20.4118154 17.9634462,19.7021538 18.9204923,18.7739077 C20.7629538,16.9735385 21.6838154,14.7160615 21.6838154,12.0007385 C21.6838154,10.6925538 21.4445538,9.45489231 20.9664,8.28738462 C20.4889846,7.11987692 19.7922462,6.07938462 18.8787692,5.16443077 C16.9787077,3.26547692 14.6935385,2.31581538 12.0210462,2.31581538 Z M11.8729846,10.0382769 L10.2900923,10.8612923 C10.1209846,10.5101538 9.91384615,10.2635077 9.66793846,10.1228308 C9.42166154,9.98252308 9.19310769,9.912 8.98190769,9.912 C7.92738462,9.912 7.39938462,10.608 7.39938462,12.0007385 C7.39938462,12.6336 7.53304615,13.1394462 7.8,13.5193846 C8.06732308,13.8993231 8.46129231,14.0894769 8.98190769,14.0894769 C9.67126154,14.0894769 10.1564308,13.7516308 10.4381538,13.0766769 L11.8936615,13.8151385 C11.5842462,14.3922462 11.1552,14.8456615 10.6065231,15.1761231 C10.0585846,15.5069538 9.45341538,15.672 8.79212308,15.672 C7.73723077,15.672 6.88578462,15.3489231 6.23889231,14.7012923 C5.592,14.0544 5.26855385,13.1542154 5.26855385,12.0011077 C5.26855385,10.8756923 5.59569231,9.98289231 6.2496,9.3216 C6.90350769,8.66067692 7.72984615,8.32984615 8.72898462,8.32984615 C10.1922462,8.32910769 11.2397538,8.89883077 11.8729846,10.0382769 Z M18.6878769,10.0382769 L17.1264,10.8612923 C16.9576615,10.5101538 16.7497846,10.2635077 16.5038769,10.1228308 C16.2572308,9.98252308 16.0212923,9.912 15.7971692,9.912 C14.7422769,9.912 14.2142769,10.608 14.2142769,12.0007385 C14.2142769,12.6336 14.3483077,13.1394462 14.6152615,13.5193846 C14.8822154,13.8993231 15.2758154,14.0894769 15.7971692,14.0894769 C16.4857846,14.0894769 16.9713231,13.7516308 17.2523077,13.0766769 L18.7292308,13.8151385 C18.4061538,14.3922462 17.9697231,14.8456615 17.4217846,15.1761231 C16.8731077,15.5069538 16.2753231,15.672 15.6284308,15.672 C14.5591385,15.672 13.7051077,15.3489231 13.0656,14.7012923 C12.4246154,14.0544 12.1048615,13.1542154 12.1048615,12.0011077 C12.1048615,10.8756923 12.4316308,9.98289231 13.0862769,9.3216 C13.7398154,8.66067692 14.5661538,8.32984615 15.5649231,8.32984615 C17.0278154,8.32910769 18.0694154,8.89883077 18.6878769,10.0382769 Z" id="Shape" fill="#000000"></path>
                </g>
                <g id="sa" transform="translate(34.000000, 0.000000)">
                    <circle id="Oval" fill="#FFFFFF" cx="11.7947077" cy="12.0483692" r="10.7464615"></circle>
                    <path d="M11.9789538,0.184615385 C15.2839385,0.184615385 18.0827077,1.33107692 20.376,3.624 C22.6681846,5.90289231 23.8153846,8.69464615 23.8153846,12 C23.8153846,15.3060923 22.6896,18.0764308 20.4387692,20.3128615 C18.0620308,22.6478769 15.2414769,23.8153846 11.9789538,23.8153846 C8.78547692,23.8153846 6.01476923,22.6548923 3.66609231,20.3339077 C1.34547692,18.0132923 0.184615385,15.2359385 0.184615385,12.0003692 C0.184615385,8.77956923 1.34547692,5.98744615 3.66609231,3.62436923 C5.95864615,1.33107692 8.72972308,0.184615385 11.9789538,0.184615385 Z M12.0210462,2.31581538 C9.33452308,2.31581538 7.06301538,3.26547692 5.20615385,5.16443077 C3.27876923,7.11987692 2.31544615,9.3984 2.31544615,12 C2.31544615,14.6307692 3.27175385,16.8948923 5.18436923,18.7938462 C7.09735385,20.7072 9.37587692,21.6631385 12.0203077,21.6631385 C14.6503385,21.6631385 16.9436308,20.6998154 18.8987077,18.7728 C20.7555692,16.9724308 21.6838154,14.7149538 21.6838154,12 C21.6838154,9.29981538 20.7411692,7.02092308 18.8569846,5.16443077 C16.9860923,3.26473846 14.7072,2.31581538 12.0210462,2.31581538 Z M6.74621538,10.3329231 C6.97107692,8.88406154 7.55446154,7.76233846 8.49710769,6.96775385 C9.43938462,6.17316923 10.5854769,5.77587692 11.9361231,5.77587692 C13.7922462,5.77587692 15.2699077,6.37403077 16.3668923,7.56886154 C17.4638769,8.76443077 18.0125538,10.2978462 18.0125538,12.1683692 C18.0125538,13.9831385 17.4428308,15.4914462 16.3041231,16.6936615 C15.1639385,17.8958769 13.6877538,18.4977231 11.8726154,18.4977231 C10.5363692,18.4977231 9.38289231,18.0971077 8.41255385,17.2951385 C7.44184615,16.4931692 6.85846154,15.3540923 6.66129231,13.8771692 L9.63692308,13.8771692 C9.70707692,15.312 10.5721846,16.0294154 12.2322462,16.0294154 C13.0615385,16.0294154 13.7302154,15.6705231 14.2364308,14.9534769 C14.7433846,14.2364308 14.9966769,13.2793846 14.9966769,12.0841846 C14.9966769,10.8321231 14.7644308,9.87950769 14.3006769,9.22523077 C13.8361846,8.57132308 13.1686154,8.24418462 12.2957538,8.24418462 C10.7198769,8.24418462 9.83409231,8.94018462 9.63729231,10.3325538 L10.5024,10.3325538 L8.16073846,12.6745846 L5.81870769,10.3325538 L6.74621538,10.3329231 L6.74621538,10.3329231 Z" id="Shape" fill="#000000"></path>
                </g>
                <g id="by" transform="translate(68.000000, 0.000000)">
                    <circle id="Oval" fill="#FFFFFF" cx="12.0505846" cy="12.1129846" r="10.4403692"></circle>
                    <path d="M11.9789538,0.184615385 C15.2976,0.184615385 18.0971077,1.32369231 20.376,3.60258462 C22.6681846,5.89550769 23.8153846,8.69464615 23.8153846,12 C23.8153846,15.3197538 22.6896,18.0834462 20.4387692,20.2914462 C18.0476308,22.6408615 15.2278154,23.8153846 11.9789538,23.8153846 C8.78547692,23.8153846 6.01476923,22.6545231 3.66609231,20.3335385 C1.34547692,18.0125538 0.184615385,15.2352 0.184615385,12 C0.184615385,8.76516923 1.34547692,5.96603077 3.66609231,3.60295385 C5.94498462,1.32369231 8.71532308,0.184615385 11.9789538,0.184615385 Z M12.0210462,2.31581538 C9.33452308,2.31581538 7.06301538,3.25846154 5.20615385,5.14301538 C3.27876923,7.11249231 2.31544615,9.3984 2.31544615,12.0003692 C2.31544615,14.6167385 3.27175385,16.8816 5.18436923,18.7934769 C7.09735385,20.7068308 9.37587692,21.6627692 12.0203077,21.6627692 C14.6503385,21.6627692 16.9436308,20.7001846 18.8987077,18.7724308 C20.7555692,16.9860923 21.6838154,14.7286154 21.6838154,11.9996308 C21.6838154,9.31310769 20.7411692,7.02793846 18.8569846,5.14264615 C16.9724308,3.25809231 14.6935385,2.31581538 12.0210462,2.31581538 Z M15.1860923,9.0672 L15.1860923,13.8985846 L13.8361846,13.8985846 L13.8361846,19.6371692 L10.1645538,19.6371692 L10.1645538,13.8989538 L8.81464615,13.8989538 L8.81464615,9.0672 C8.81464615,8.856 8.88849231,8.67692308 9.03581538,8.52923077 C9.18387692,8.38190769 9.36332308,8.30769231 9.57378462,8.30769231 L14.4269538,8.30769231 C14.6237538,8.30769231 14.7998769,8.38153846 14.9542154,8.52923077 C15.1081846,8.67692308 15.1860923,8.85636923 15.1860923,9.0672 Z M10.3539692,6.02916923 C10.3539692,4.91852308 10.9022769,4.36246154 12,4.36246154 C13.0977231,4.36246154 13.6456615,4.91778462 13.6456615,6.02916923 C13.6456615,7.12615385 13.0969846,7.67483077 12,7.67483077 C10.9030154,7.67483077 10.3539692,7.12615385 10.3539692,6.02916923 Z" id="Shape" fill="#000000"></path>
                </g>
            </g>
        </g>
    </g>
</svg>